<?xml version="1.0" standalone="no"?>
<!DOCTYPE svg PUBLIC "-//W3C//DTD SVG 20010904//EN"
 "http://www.w3.org/TR/2001/REC-SVG-20010904/DTD/svg10.dtd">
<svg version="1.0" xmlns="http://www.w3.org/2000/svg"
 width="132.000000pt" height="132.000000pt" viewBox="0 0 132.000000 132.000000"
 preserveAspectRatio="xMidYMid meet">
<metadata>
Created by potrace 1.14, written by Peter Selinger 2001-2017
</metadata>
<g transform="translate(0.000000,132.000000) scale(0.100000,-0.100000)"
fill="#000000" stroke="none">
<path d="M305 664 l0 -619 352 0 353 0 0 539 0 539 -84 -6 c-92 -6 -188 -43
-239 -92 l-28 -26 -38 31 c-64 50 -154 85 -232 90 -3 0 -6 16 -7 35 -2 41 5
42 91 20 48 -13 130 -54 147 -74 28 -33 40 -33 77 -1 61 54 134 82 229 88 l84
5 0 45 0 45 -87 -6 c-99 -5 -163 -29 -228 -81 l-40 -33 -25 24 c-14 13 -53 38
-87 55 -51 25 -79 31 -150 35 l-88 6 0 -619z m202 344 c44 -21 95 -64 128
-111 l20 -28 49 57 c51 59 116 96 189 109 l37 7 0 -459 0 -460 -272 1 -273 1
-2 445 c-1 245 0 451 2 458 6 17 63 7 122 -20z"/>
<path d="M621 703 c-50 -75 -64 -140 -66 -295 -1 -138 -1 -138 22 -139 29 -1
92 -1 144 0 l40 1 -2 143 c-1 104 -7 155 -19 193 -18 51 -61 127 -79 138 -5 3
-23 -15 -40 -41z m57 -235 c5 -113 1 -129 -27 -121 -19 5 -20 11 -17 102 2 53
7 109 11 125 7 26 9 27 18 10 6 -11 13 -63 15 -116z"/>
</g>
</svg>
